<svg viewBox="0 0 627 334" xmlns="http://www.w3.org/2000/svg" xmlns:serif="http://www.serif.com/" fill-rule="evenodd" clip-rule="evenodd" stroke-linejoin="round" stroke-miterlimit="2"><path fill="none" d="M0 0h626.712v333.913H0z"/><g serif:id="Terminal Mendoza"><path d="M231.454 303.675v3.506h-8.243v21.807h-3.975V307.18h-8.29v-3.506h20.508zM254.666 303.675v3.506h-13.67v7.776h11.677v3.363h-11.676v7.17h14.03v3.498h-18.015v-25.313h17.654zM265.758 315.248h7.266c1.95 0 3.618-1.49 3.618-4.05 0-2.967-2.279-4.016-4.628-4.016h-6.256v8.066zm7.266-11.573c4.12 0 7.522 3.001 7.522 7.56 0 3.62-2.134 6.223-5.025 7.05l6.003 10.702h-4.595l-5.495-10.23h-5.676v10.23h-3.979v-25.312h11.245zM293.08 303.675l8.03 19.128h.071l8.068-19.128h5.425v25.313h-3.94v-19.27h-.11l-7.702 17.793h-3.509l-7.706-17.831h-.072v19.308h-4.015v-25.313h5.46z" fill="#0054a6" fill-rule="nonzero"/><path fill="#0054a6" d="M326.881 303.675h-3.976v25.313h3.976z"/><path d="M339.244 303.675l7.703 11.787 4.449 7.27h.072l-.183-8.643v-10.414h3.979v25.313h-4.085l-7.74-12.296-4.452-6.975h-.07l.18 7.16v12.11h-3.978v-25.312h4.125zM368.38 319.115h8.17l-4.051-11.862h-.069l-4.05 11.862zm9.259 3.331h-10.343l-2.247 6.54h-4.231l9.157-25.636h4.99l9.146 25.636h-4.23l-2.242-6.54zM393.646 303.675v21.814h12.369v3.499h-16.346v-25.313h3.977zM427.48 303.675l8.03 19.128h.072l8.067-19.128h5.423v25.313h-3.94v-19.27h-.108l-7.705 17.793h-3.512l-7.698-17.831h-.075v19.308h-4.013v-25.313h5.458zM474.951 303.675v3.506h-13.673v7.776h11.685v3.363h-11.685v7.17h14.035v3.498h-18.01v-25.313h17.648zM486.186 303.675l7.7 11.787 4.455 7.27h.07l-.18-8.643v-10.414h3.975v25.313h-4.086l-7.74-12.296-4.448-6.975h-.073l.184 7.16v12.11h-3.979v-25.312h4.122zM514.416 325.49h4.086c1.266 0 3.187-.3 4.847-1.302 2.678-1.63 3.474-4.74 3.474-7.852 0-3.109-.87-6.225-3.474-7.853-1.808-1.119-3.829-1.301-4.847-1.301h-4.086v18.308zm-3.978 3.497v-25.311h8.788c2.135 0 4.338.544 6.078 1.55 4.047 2.35 5.751 6.765 5.751 11.11 0 4.448-1.956 8.786-5.935 11.064-1.952 1.118-4.084 1.587-5.894 1.587h-8.788zM558.492 316.337c0-6.083-3.799-9.512-9.043-9.512-5.207 0-9.005 3.429-9.005 9.512 0 6.07 3.764 9.504 9.005 9.504 5.279 0 9.043-3.433 9.043-9.504m-22.244 0c0-7.812 6.04-13.022 13.201-13.022 7.2 0 13.239 5.21 13.239 13.022 0 7.809-6.038 13.013-13.239 13.013-7.16 0-13.201-5.204-13.201-13.013M586.36 303.675v2.64l-14.216 19.241.04.07 5.641-.137h8.536v3.499h-19.497v-2.783l14.36-19.058-.035-.078-5.57.112h-8.208v-3.506h18.95zM597.739 319.115h8.176l-4.053-11.862h-.072l-4.051 11.862zm9.26 3.331h-10.347l-2.237 6.54h-4.233l9.147-25.636h4.992l9.152 25.636h-4.234l-2.24-6.54z" fill="#0054a6" fill-rule="nonzero"/></g><path d="M568.318 243.13v41.344h47.449l7.259-41.343h-54.708z" fill="#00aeef" fill-rule="nonzero"/><path d="M542.021 101.913c-31.689 0-50.29 15.848-59.247 28.935-7.92-22.39-28.246-28.935-44.78-28.935-21.697 0-40.643 11.363-51.674 28.935l-1.374-25.496h-45.961l-27.558 179.122h54.579l19.634-110.572c2.064-11.709 9.985-27.205 29.278-27.205 16.878 0 22.044 11.703 20.32 22.038l-20.664 115.739h59.247l19.29-108.159c1.718-8.958 7.577-29.618 29.964-29.618 15.506 0 20.327 10.328 20.327 18.596 0 1.034-.347 3.1-.347 3.1l-20.67 116.08h59.593l18.261-104.368c1.374-7.24 1.72-14.812 1.72-19.638 0-43.056-28.932-58.554-59.938-58.554" fill="#0054a6" fill-rule="nonzero"/><path d="M317.585 192.23c-6.144 1.67-14.71 3.706-23.602 3.706-7.235 0-14.81-3.094-14.81-12.397 0-2.067.34-4.137.684-6.89l14.126-79.913h60.323l6.359-41.335h-59.447l9.3-51.668h-49.944L242.66 55.401l-33.678 5.318-5.541 36.017h31.292l-12.74 74.398c-1.379 6.896-2.069 13.784-2.069 19.979 0 27.562 14.81 46.855 52.357 46.855 11.914 0 27.875-2.176 39.269-6.51l6.035-39.227z" fill="#0089cf" fill-rule="nonzero"/><path d="M-.223 1.081h-.002l-.003-.001A.873.873 0 0 1-.856.427L-.859.418A.866.866 0 0 1-.85.007c.029-.108.11-.234.24-.374.103-.111.238-.231.4-.358a6.695 6.695 0 0 1 .54-.376h.001c.002-.002.005-.003.009-.004.013-.003.026.004.032.017.057.112.418.837.485 1.124l.002.009A.879.879 0 0 1-.223 1.081zm.171-1.247h-.001a.41.41 0 0 0-.336.301.389.389 0 0 0 .042.3.4.4 0 0 0 .399.193.4.4 0 0 0 .05-.784.39.39 0 0 0-.154-.01z" fill="url(#a)" fill-rule="nonzero" transform="matrix(105.69229 0 0 -105.6921 95.741 161.166)"/><path d="M.998.223A.246.246 0 0 0 .516.192L0 .056s.476-.241.65-.279a.448.448 0 0 1 .241.134A.415.415 0 0 1 1 .184L.998.223z" fill="url(#b)" fill-rule="nonzero" transform="matrix(0 -183.78217 -183.7825 0 142.671 275.279)"/><path d="M0 .456L.101.073a.43.43 0 0 0 .155.01.663.663 0 0 0 .507-.174.728.728 0 0 0 .219-.392A.797.797 0 0 1 0 .456z" fill="url(#c)" fill-rule="nonzero" transform="matrix(113.04931 0 0 -113.0491 72.728 101.26)"/><path d="M.487.31A.616.616 0 0 1 .154.126.566.566 0 0 1 .003-.31c.018.133.119.25.256.287a.338.338 0 0 0 .413-.244L1-.181A.681.681 0 0 1 .487.31z" fill="url(#d)" fill-rule="nonzero" transform="matrix(0 -132.27112 -132.27136 0 48.817 181.948)"/><path d="M.024.29C.124-.089 1-.622 1-.622L.802.127A.34.34 0 0 0 .664.118a.589.589 0 0 0-.453.155.65.65 0 0 0-.195.349A.705.705 0 0 1 .024.29z" fill="url(#e)" fill-rule="nonzero" transform="matrix(126.68035 0 0 -126.68011 5.706 196.435)"/><defs><radialGradient id="a" cx="0" cy="0" r="1" gradientUnits="userSpaceOnUse" gradientTransform="matrix(1 0 0 -1 0 .002)"><stop offset="0" stop-color="#e9e9e9"/><stop offset=".56" stop-color="#a7a5a6"/><stop offset="1" stop-color="#7b7979"/></radialGradient><linearGradient id="b" x2="1" gradientUnits="userSpaceOnUse" gradientTransform="matrix(1 0 0 -1 0 0)"><stop offset="0" stop-color="#e9e9e9"/><stop offset="1" stop-color="#868484"/></linearGradient><linearGradient id="c" x2="1" gradientUnits="userSpaceOnUse" gradientTransform="matrix(1 0 0 -1 0 0)"><stop offset="0" stop-color="#e9e9e9"/><stop offset="1" stop-color="#7f7d7e"/></linearGradient><linearGradient id="d" x2="1" gradientUnits="userSpaceOnUse" gradientTransform="matrix(1 0 0 -1 0 0)"><stop offset="0" stop-color="#e9e9e9"/><stop offset="1" stop-color="#7b7979"/></linearGradient><linearGradient id="e" x2="1" gradientUnits="userSpaceOnUse" gradientTransform="matrix(1 0 0 -1 0 0)"><stop offset="0" stop-color="#fff"/><stop offset=".03" stop-color="#e9e9e9"/><stop offset="1" stop-color="#868484"/></linearGradient></defs></svg>